<mxfile host="app.diagrams.net" modified="2021-09-12T07:19:55.844Z" agent="5.0 (Windows NT 10.0; Win64; x64) AppleWebKit/537.36 (KHTML, like Gecko) Chrome/92.0.4515.159 Safari/537.36" etag="GiOmazgn4GOj1HjM4tsc" version="14.7.6" type="github">
  <diagram id="3og0gf8gtnWCEk_-Y0HO" name="Page-1">
    <mxGraphModel dx="920" dy="551" grid="0" gridSize="10" guides="1" tooltips="1" connect="1" arrows="1" fold="1" page="0" pageScale="1" pageWidth="850" pageHeight="1100" math="0" shadow="0">
      <root>
        <mxCell id="0" />
        <mxCell id="1" parent="0" />
        <mxCell id="b6LhymSOxV37hpZ0LlV4-14" value="Z" style="edgeStyle=orthogonalEdgeStyle;rounded=0;orthogonalLoop=1;jettySize=auto;html=1;entryX=0;entryY=0.5;entryDx=0;entryDy=0;dashed=1;strokeColor=#0000CC;endArrow=none;endFill=0;" parent="1" source="b6LhymSOxV37hpZ0LlV4-2" target="b6LhymSOxV37hpZ0LlV4-4" edge="1">
          <mxGeometry relative="1" as="geometry" />
        </mxCell>
        <mxCell id="b6LhymSOxV37hpZ0LlV4-2" value="" style="aspect=fixed;pointerEvents=1;shadow=0;dashed=0;html=1;strokeColor=none;labelPosition=center;verticalLabelPosition=bottom;verticalAlign=top;align=center;fillColor=#00188D;shape=mxgraph.azure.user" parent="1" vertex="1">
          <mxGeometry x="120" y="160" width="47" height="50" as="geometry" />
        </mxCell>
        <mxCell id="b6LhymSOxV37hpZ0LlV4-3" value="&lt;b&gt;&lt;font style=&quot;font-size: 11px&quot;&gt;Real-Time Policy Evaluation&lt;/font&gt;&lt;/b&gt;" style="text;html=1;resizable=0;autosize=1;align=center;verticalAlign=middle;points=[];fillColor=none;strokeColor=none;rounded=0;" parent="1" vertex="1">
          <mxGeometry x="455" y="350" width="160" height="20" as="geometry" />
        </mxCell>
        <mxCell id="b6LhymSOxV37hpZ0LlV4-4" value="" style="ellipse;whiteSpace=wrap;html=1;fillColor=none;dashed=1;strokeColor=#000099;strokeWidth=1;" parent="1" vertex="1">
          <mxGeometry x="440" y="300" width="190" height="105" as="geometry" />
        </mxCell>
        <mxCell id="b6LhymSOxV37hpZ0LlV4-5" value="&lt;b style=&quot;font-size: 17px&quot;&gt;&lt;font color=&quot;#000099&quot; style=&quot;font-size: 17px&quot;&gt;Security Policy &lt;br&gt;Enforcement&lt;br&gt;&lt;br&gt;&lt;/font&gt;&lt;/b&gt;" style="text;html=1;resizable=0;autosize=1;align=center;verticalAlign=middle;points=[];fillColor=none;strokeColor=none;rounded=0;" parent="1" vertex="1">
          <mxGeometry x="460" y="320" width="140" height="50" as="geometry" />
        </mxCell>
        <mxCell id="b6LhymSOxV37hpZ0LlV4-8" value="" style="shape=image;html=1;verticalAlign=top;verticalLabelPosition=bottom;labelBackgroundColor=#ffffff;imageAspect=0;aspect=fixed;image=https://cdn1.iconfinder.com/data/icons/funeral-7/64/calendar-time-date-organization-schedule-administration-calendars-time_and_date-interface-128.png;dashed=1;strokeColor=#000099;strokeWidth=1;fillColor=none;" parent="1" vertex="1">
          <mxGeometry x="500" y="112" width="48" height="48" as="geometry" />
        </mxCell>
        <mxCell id="b6LhymSOxV37hpZ0LlV4-16" style="edgeStyle=orthogonalEdgeStyle;rounded=0;orthogonalLoop=1;jettySize=auto;html=1;entryX=0.442;entryY=0;entryDx=0;entryDy=0;entryPerimeter=0;dashed=1;strokeColor=#0000CC;endArrow=none;endFill=0;" parent="1" source="b6LhymSOxV37hpZ0LlV4-9" target="b6LhymSOxV37hpZ0LlV4-4" edge="1">
          <mxGeometry relative="1" as="geometry" />
        </mxCell>
        <mxCell id="b6LhymSOxV37hpZ0LlV4-9" value="&lt;b&gt;&lt;font color=&quot;#0000cc&quot;&gt;OHG Policy&lt;/font&gt;&lt;/b&gt;" style="text;html=1;resizable=0;autosize=1;align=center;verticalAlign=middle;points=[];fillColor=none;strokeColor=none;rounded=0;dashed=1;" parent="1" vertex="1">
          <mxGeometry x="484" y="160" width="80" height="20" as="geometry" />
        </mxCell>
        <mxCell id="b6LhymSOxV37hpZ0LlV4-10" value="&lt;b&gt;&lt;font style=&quot;font-size: 13px&quot; color=&quot;#0000cc&quot;&gt;Identities&lt;/font&gt;&lt;/b&gt;" style="text;html=1;resizable=0;autosize=1;align=center;verticalAlign=middle;points=[];fillColor=none;strokeColor=none;rounded=0;dashed=1;" parent="1" vertex="1">
          <mxGeometry x="108.5" y="130" width="70" height="20" as="geometry" />
        </mxCell>
        <mxCell id="b6LhymSOxV37hpZ0LlV4-11" value="Identity Provider" style="text;html=1;resizable=0;autosize=1;align=center;verticalAlign=middle;points=[];rounded=0;dashed=1;fillColor=#f5f5f5;fontColor=#333333;" parent="1" vertex="1">
          <mxGeometry x="230" y="210" width="100" height="20" as="geometry" />
        </mxCell>
        <mxCell id="b6LhymSOxV37hpZ0LlV4-24" style="edgeStyle=orthogonalEdgeStyle;rounded=0;orthogonalLoop=1;jettySize=auto;html=1;entryX=0;entryY=0;entryDx=0;entryDy=0;dashed=1;endArrow=none;endFill=0;strokeColor=#0000CC;" parent="1" source="b6LhymSOxV37hpZ0LlV4-12" target="b6LhymSOxV37hpZ0LlV4-4" edge="1">
          <mxGeometry relative="1" as="geometry" />
        </mxCell>
        <mxCell id="b6LhymSOxV37hpZ0LlV4-12" value="Multi Factor Authentication" style="text;html=1;resizable=0;autosize=1;align=center;verticalAlign=middle;points=[];rounded=0;dashed=1;fillColor=#f5f5f5;fontColor=#333333;" parent="1" vertex="1">
          <mxGeometry x="220" y="270" width="160" height="20" as="geometry" />
        </mxCell>
        <mxCell id="b6LhymSOxV37hpZ0LlV4-22" style="edgeStyle=orthogonalEdgeStyle;rounded=0;orthogonalLoop=1;jettySize=auto;html=1;entryX=0;entryY=0.5;entryDx=0;entryDy=0;entryPerimeter=0;dashed=1;endArrow=none;endFill=0;strokeColor=#0000CC;" parent="1" source="b6LhymSOxV37hpZ0LlV4-17" target="b6LhymSOxV37hpZ0LlV4-19" edge="1">
          <mxGeometry relative="1" as="geometry" />
        </mxCell>
        <mxCell id="b6LhymSOxV37hpZ0LlV4-17" value="" style="pointerEvents=1;shadow=0;dashed=0;html=1;strokeColor=none;fillColor=#505050;labelPosition=center;verticalLabelPosition=bottom;verticalAlign=top;outlineConnect=0;align=center;shape=mxgraph.office.devices.laptop;" parent="1" vertex="1">
          <mxGeometry x="121.5" y="620" width="45.5" height="30" as="geometry" />
        </mxCell>
        <mxCell id="b6LhymSOxV37hpZ0LlV4-23" style="edgeStyle=orthogonalEdgeStyle;rounded=0;orthogonalLoop=1;jettySize=auto;html=1;entryX=-0.004;entryY=0.654;entryDx=0;entryDy=0;entryPerimeter=0;dashed=1;endArrow=none;endFill=0;strokeColor=#0000CC;" parent="1" source="b6LhymSOxV37hpZ0LlV4-19" target="b6LhymSOxV37hpZ0LlV4-4" edge="1">
          <mxGeometry relative="1" as="geometry">
            <Array as="points">
              <mxPoint x="300" y="369" />
            </Array>
          </mxGeometry>
        </mxCell>
        <mxCell id="b6LhymSOxV37hpZ0LlV4-19" value="" style="outlineConnect=0;dashed=0;verticalLabelPosition=bottom;verticalAlign=top;align=center;html=1;shape=mxgraph.aws3.inventory;fillColor=#759C3E;gradientColor=none;strokeColor=#000099;strokeWidth=1;" parent="1" vertex="1">
          <mxGeometry x="280" y="540" width="40" height="30" as="geometry" />
        </mxCell>
        <mxCell id="b6LhymSOxV37hpZ0LlV4-21" style="edgeStyle=orthogonalEdgeStyle;rounded=0;orthogonalLoop=1;jettySize=auto;html=1;entryX=0;entryY=0.5;entryDx=0;entryDy=0;entryPerimeter=0;dashed=1;strokeColor=#0000CC;endArrow=none;endFill=0;" parent="1" source="b6LhymSOxV37hpZ0LlV4-20" target="b6LhymSOxV37hpZ0LlV4-19" edge="1">
          <mxGeometry relative="1" as="geometry" />
        </mxCell>
        <mxCell id="b6LhymSOxV37hpZ0LlV4-20" value="" style="verticalLabelPosition=bottom;html=1;fillColor=#6ABD46;strokeColor=#ffffff;verticalAlign=top;align=center;points=[[0.085,0.085,0],[0.915,0.085,0],[0.915,0.915,0],[0.085,0.915,0],[0.25,0,0],[0.5,0,0],[0.75,0,0],[1,0.25,0],[1,0.5,0],[1,0.75,0],[0.75,1,0],[0.5,1,0],[0.25,1,0],[0,0.75,0],[0,0.5,0],[0,0.25,0]];pointerEvents=1;shape=mxgraph.cisco_safe.compositeIcon;bgIcon=mxgraph.cisco_safe.architecture.generic_appliance;resIcon=mxgraph.cisco_safe.architecture.corporate_device1;dashed=1;" parent="1" vertex="1">
          <mxGeometry x="117" y="470" width="50" height="50" as="geometry" />
        </mxCell>
        <mxCell id="b6LhymSOxV37hpZ0LlV4-25" value="Corporate Devices" style="text;html=1;resizable=0;autosize=1;align=center;verticalAlign=middle;points=[];fillColor=none;strokeColor=none;rounded=0;dashed=1;" parent="1" vertex="1">
          <mxGeometry x="85" y="520" width="110" height="20" as="geometry" />
        </mxCell>
        <mxCell id="b6LhymSOxV37hpZ0LlV4-26" value="Unmanaged Devices" style="text;html=1;resizable=0;autosize=1;align=center;verticalAlign=middle;points=[];fillColor=none;strokeColor=none;rounded=0;dashed=1;" parent="1" vertex="1">
          <mxGeometry x="85" y="650" width="130" height="20" as="geometry" />
        </mxCell>
        <mxCell id="b6LhymSOxV37hpZ0LlV4-27" value="Device Inventory" style="text;html=1;resizable=0;autosize=1;align=center;verticalAlign=middle;points=[];fillColor=none;strokeColor=none;rounded=0;dashed=1;" parent="1" vertex="1">
          <mxGeometry x="260" y="570" width="100" height="20" as="geometry" />
        </mxCell>
        <mxCell id="b6LhymSOxV37hpZ0LlV4-29" value="Device Risk and &lt;br&gt;Compliance State" style="text;html=1;resizable=0;autosize=1;align=center;verticalAlign=middle;points=[];rounded=0;dashed=1;fillColor=#f5f5f5;fontColor=#333333;" parent="1" vertex="1">
          <mxGeometry x="245" y="400" width="110" height="30" as="geometry" />
        </mxCell>
        <mxCell id="b6LhymSOxV37hpZ0LlV4-30" value="A" style="text;html=1;resizable=0;autosize=1;align=center;verticalAlign=middle;points=[];rounded=0;dashed=1;fillColor=#f5f5f5;fontColor=#333333;" parent="1" vertex="1">
          <mxGeometry x="291" y="471" width="18" height="18" as="geometry" />
        </mxCell>
        <mxCell id="b6LhymSOxV37hpZ0LlV4-33" style="edgeStyle=orthogonalEdgeStyle;rounded=0;orthogonalLoop=1;jettySize=auto;html=1;dashed=1;endArrow=none;endFill=0;strokeColor=#0000CC;" parent="1" source="b6LhymSOxV37hpZ0LlV4-31" target="b6LhymSOxV37hpZ0LlV4-4" edge="1">
          <mxGeometry relative="1" as="geometry" />
        </mxCell>
        <mxCell id="b6LhymSOxV37hpZ0LlV4-31" value="" style="fillColor=#28A8E0;verticalLabelPosition=bottom;html=1;strokeColor=#ffffff;verticalAlign=top;align=center;points=[[0.145,0.145,0],[0.5,0,0],[0.855,0.145,0],[1,0.5,0],[0.855,0.855,0],[0.5,1,0],[0.145,0.855,0],[0,0.5,0]];pointerEvents=1;shape=mxgraph.cisco_safe.compositeIcon;bgIcon=ellipse;resIcon=mxgraph.cisco_safe.capability.threat_intelligence;dashed=1;" parent="1" vertex="1">
          <mxGeometry x="514" y="490" width="43" height="43" as="geometry" />
        </mxCell>
        <mxCell id="b6LhymSOxV37hpZ0LlV4-32" value="Threat Intelligence" style="text;html=1;resizable=0;autosize=1;align=center;verticalAlign=middle;points=[];fillColor=none;strokeColor=none;rounded=0;dashed=1;" parent="1" vertex="1">
          <mxGeometry x="480.5" y="540" width="110" height="20" as="geometry" />
        </mxCell>
        <mxCell id="b6LhymSOxV37hpZ0LlV4-54" style="edgeStyle=orthogonalEdgeStyle;rounded=0;orthogonalLoop=1;jettySize=auto;html=1;entryX=1;entryY=0.5;entryDx=0;entryDy=0;dashed=1;endArrow=none;endFill=0;strokeColor=#0000CC;" parent="1" source="b6LhymSOxV37hpZ0LlV4-34" target="b6LhymSOxV37hpZ0LlV4-4" edge="1">
          <mxGeometry relative="1" as="geometry" />
        </mxCell>
        <mxCell id="b6LhymSOxV37hpZ0LlV4-34" value="" style="rounded=1;whiteSpace=wrap;html=1;dashed=1;strokeWidth=1;fillColor=none;strokeColor=#333333;" parent="1" vertex="1">
          <mxGeometry x="940" y="112" width="140" height="78" as="geometry" />
        </mxCell>
        <mxCell id="b6LhymSOxV37hpZ0LlV4-35" value="&lt;b&gt;&lt;font color=&quot;#0000cc&quot; style=&quot;font-size: 13px&quot;&gt;Devices&lt;/font&gt;&lt;/b&gt;" style="text;html=1;resizable=0;autosize=1;align=center;verticalAlign=middle;points=[];fillColor=none;strokeColor=none;rounded=0;dashed=1;" parent="1" vertex="1">
          <mxGeometry x="102" y="690" width="60" height="20" as="geometry" />
        </mxCell>
        <mxCell id="b6LhymSOxV37hpZ0LlV4-36" value="&lt;b&gt;&lt;font style=&quot;font-size: 13px&quot; color=&quot;#0000cc&quot;&gt;Data&lt;/font&gt;&lt;/b&gt;" style="text;html=1;resizable=0;autosize=1;align=center;verticalAlign=middle;points=[];fillColor=none;strokeColor=none;rounded=0;dashed=1;" parent="1" vertex="1">
          <mxGeometry x="980" y="112" width="40" height="20" as="geometry" />
        </mxCell>
        <mxCell id="b6LhymSOxV37hpZ0LlV4-55" style="edgeStyle=orthogonalEdgeStyle;rounded=0;orthogonalLoop=1;jettySize=auto;html=1;dashed=1;endArrow=none;endFill=0;strokeColor=#0000CC;" parent="1" source="b6LhymSOxV37hpZ0LlV4-37" edge="1">
          <mxGeometry relative="1" as="geometry">
            <mxPoint x="780" y="260" as="targetPoint" />
          </mxGeometry>
        </mxCell>
        <mxCell id="b6LhymSOxV37hpZ0LlV4-37" value="" style="rounded=1;whiteSpace=wrap;html=1;dashed=1;strokeWidth=1;fillColor=none;strokeColor=#333333;" parent="1" vertex="1">
          <mxGeometry x="940" y="220" width="140" height="80" as="geometry" />
        </mxCell>
        <mxCell id="b6LhymSOxV37hpZ0LlV4-56" style="edgeStyle=orthogonalEdgeStyle;rounded=0;orthogonalLoop=1;jettySize=auto;html=1;entryX=0;entryY=0.633;entryDx=0;entryDy=0;entryPerimeter=0;dashed=1;endArrow=none;endFill=0;strokeColor=#0000CC;" parent="1" source="b6LhymSOxV37hpZ0LlV4-38" target="b6LhymSOxV37hpZ0LlV4-39" edge="1">
          <mxGeometry relative="1" as="geometry">
            <Array as="points">
              <mxPoint x="890" y="360" />
              <mxPoint x="890" y="468" />
            </Array>
          </mxGeometry>
        </mxCell>
        <mxCell id="b6LhymSOxV37hpZ0LlV4-57" style="edgeStyle=orthogonalEdgeStyle;rounded=0;orthogonalLoop=1;jettySize=auto;html=1;entryX=1;entryY=0.5;entryDx=0;entryDy=0;dashed=1;endArrow=none;endFill=0;strokeColor=#0000CC;" parent="1" source="b6LhymSOxV37hpZ0LlV4-38" target="b6LhymSOxV37hpZ0LlV4-4" edge="1">
          <mxGeometry relative="1" as="geometry">
            <Array as="points">
              <mxPoint x="890" y="360" />
              <mxPoint x="890" y="410" />
              <mxPoint x="785" y="410" />
              <mxPoint x="785" y="353" />
            </Array>
          </mxGeometry>
        </mxCell>
        <mxCell id="b6LhymSOxV37hpZ0LlV4-38" value="" style="rounded=1;whiteSpace=wrap;html=1;dashed=1;strokeWidth=1;fillColor=none;strokeColor=#333333;" parent="1" vertex="1">
          <mxGeometry x="940" y="330" width="120" height="60" as="geometry" />
        </mxCell>
        <mxCell id="b6LhymSOxV37hpZ0LlV4-39" value="" style="rounded=1;whiteSpace=wrap;html=1;dashed=1;strokeWidth=1;fillColor=none;strokeColor=#333333;" parent="1" vertex="1">
          <mxGeometry x="940" y="430" width="120" height="60" as="geometry" />
        </mxCell>
        <mxCell id="b6LhymSOxV37hpZ0LlV4-40" value="&lt;b&gt;&lt;font color=&quot;#0000cc&quot; style=&quot;font-size: 13px&quot;&gt;Apps&lt;/font&gt;&lt;/b&gt;" style="text;html=1;resizable=0;autosize=1;align=center;verticalAlign=middle;points=[];fillColor=none;strokeColor=none;rounded=0;dashed=1;" parent="1" vertex="1">
          <mxGeometry x="980" y="220" width="50" height="20" as="geometry" />
        </mxCell>
        <mxCell id="b6LhymSOxV37hpZ0LlV4-41" value="&lt;b&gt;&lt;font color=&quot;#0000cc&quot; style=&quot;font-size: 13px&quot;&gt;Network&lt;/font&gt;&lt;/b&gt;" style="text;html=1;resizable=0;autosize=1;align=center;verticalAlign=middle;points=[];fillColor=none;strokeColor=none;rounded=0;dashed=1;" parent="1" vertex="1">
          <mxGeometry x="955" y="430" width="70" height="20" as="geometry" />
        </mxCell>
        <mxCell id="b6LhymSOxV37hpZ0LlV4-42" value="&lt;b&gt;&lt;font color=&quot;#0000cc&quot; style=&quot;font-size: 13px&quot;&gt;Infrastructure&lt;/font&gt;&lt;/b&gt;" style="text;html=1;resizable=0;autosize=1;align=center;verticalAlign=middle;points=[];fillColor=none;strokeColor=none;rounded=0;dashed=1;" parent="1" vertex="1">
          <mxGeometry x="950" y="330" width="100" height="20" as="geometry" />
        </mxCell>
        <mxCell id="b6LhymSOxV37hpZ0LlV4-43" value="Device Identity" style="text;html=1;resizable=0;autosize=1;align=center;verticalAlign=middle;points=[];strokeColor=#666666;rounded=0;dashed=1;fillColor=#f5f5f5;fontColor=#333333;" parent="1" vertex="1">
          <mxGeometry x="1185" y="110" width="90" height="20" as="geometry" />
        </mxCell>
        <mxCell id="b6LhymSOxV37hpZ0LlV4-44" value="&lt;font style=&quot;font-size: 10px&quot;&gt;Device Identity&lt;/font&gt;" style="text;html=1;resizable=0;autosize=1;align=center;verticalAlign=middle;points=[];strokeColor=#666666;rounded=0;dashed=1;fillColor=#f5f5f5;fontColor=#333333;" parent="1" vertex="1">
          <mxGeometry x="1200" y="120" width="80" height="20" as="geometry" />
        </mxCell>
        <mxCell id="b6LhymSOxV37hpZ0LlV4-45" value="&lt;font style=&quot;font-size: 10px&quot;&gt;JIT &amp;amp; JEA&lt;/font&gt;" style="text;html=1;resizable=0;autosize=1;align=center;verticalAlign=middle;points=[];rounded=0;dashed=1;fillColor=#f5f5f5;fontColor=#333333;" parent="1" vertex="1">
          <mxGeometry x="870" y="340" width="60" height="20" as="geometry" />
        </mxCell>
        <mxCell id="b6LhymSOxV37hpZ0LlV4-46" value="&lt;font style=&quot;font-size: 11px&quot;&gt;IaaS&lt;/font&gt;" style="text;html=1;resizable=0;autosize=1;align=center;verticalAlign=middle;points=[];rounded=0;dashed=1;fillColor=#f5f5f5;fontColor=#333333;" parent="1" vertex="1">
          <mxGeometry x="950" y="360" width="40" height="20" as="geometry" />
        </mxCell>
        <mxCell id="b6LhymSOxV37hpZ0LlV4-47" value="&lt;font style=&quot;font-size: 10px&quot;&gt;SaaS Apps&lt;/font&gt;" style="text;html=1;resizable=0;autosize=1;align=center;verticalAlign=middle;points=[];rounded=0;dashed=1;fillColor=#f5f5f5;fontColor=#333333;" parent="1" vertex="1">
          <mxGeometry x="975" y="240" width="60" height="20" as="geometry" />
        </mxCell>
        <mxCell id="b6LhymSOxV37hpZ0LlV4-48" value="&lt;font style=&quot;font-size: 11px&quot;&gt;Structured Data&lt;/font&gt;" style="text;html=1;resizable=0;autosize=1;align=center;verticalAlign=middle;points=[];rounded=0;dashed=1;fillColor=#f5f5f5;fontColor=#333333;" parent="1" vertex="1">
          <mxGeometry x="960" y="160" width="90" height="20" as="geometry" />
        </mxCell>
        <mxCell id="b6LhymSOxV37hpZ0LlV4-49" value="&lt;font style=&quot;font-size: 11px&quot;&gt;Emails &amp;amp; Documents&lt;/font&gt;" style="text;html=1;resizable=0;autosize=1;align=center;verticalAlign=middle;points=[];rounded=0;dashed=1;fillColor=#f5f5f5;fontColor=#333333;" parent="1" vertex="1">
          <mxGeometry x="950" y="132" width="120" height="20" as="geometry" />
        </mxCell>
        <mxCell id="b6LhymSOxV37hpZ0LlV4-50" value="&lt;font style=&quot;font-size: 10px&quot;&gt;OnPrem Apps&lt;/font&gt;" style="text;html=1;resizable=0;autosize=1;align=center;verticalAlign=middle;points=[];rounded=0;dashed=1;fillColor=#f5f5f5;fontColor=#333333;" parent="1" vertex="1">
          <mxGeometry x="970" y="270" width="80" height="20" as="geometry" />
        </mxCell>
        <mxCell id="b6LhymSOxV37hpZ0LlV4-51" value="&lt;font style=&quot;font-size: 11px&quot;&gt;Network Delivery&lt;/font&gt;" style="text;html=1;resizable=0;autosize=1;align=center;verticalAlign=middle;points=[];rounded=0;dashed=1;fillColor=#f5f5f5;fontColor=#333333;" parent="1" vertex="1">
          <mxGeometry x="955" y="460" width="100" height="20" as="geometry" />
        </mxCell>
        <mxCell id="b6LhymSOxV37hpZ0LlV4-52" value="&lt;font style=&quot;font-size: 11px&quot;&gt;PaaS&lt;/font&gt;" style="text;html=1;resizable=0;autosize=1;align=center;verticalAlign=middle;points=[];rounded=0;dashed=1;fillColor=#f5f5f5;fontColor=#333333;" parent="1" vertex="1">
          <mxGeometry x="1000" y="360" width="40" height="20" as="geometry" />
        </mxCell>
        <mxCell id="b6LhymSOxV37hpZ0LlV4-58" value="&lt;font style=&quot;font-size: 10px&quot;&gt;Classify, label, encrypt&lt;/font&gt;" style="text;html=1;resizable=0;autosize=1;align=center;verticalAlign=middle;points=[];rounded=0;dashed=1;fillColor=#f5f5f5;fontColor=#333333;" parent="1" vertex="1">
          <mxGeometry x="810" y="152" width="110" height="20" as="geometry" />
        </mxCell>
        <mxCell id="b6LhymSOxV37hpZ0LlV4-59" value="&lt;font style=&quot;font-size: 10px&quot;&gt;Adaptive Access&lt;/font&gt;" style="text;html=1;resizable=0;autosize=1;align=center;verticalAlign=middle;points=[];rounded=0;dashed=1;fillColor=#f5f5f5;fontColor=#333333;" parent="1" vertex="1">
          <mxGeometry x="820" y="250" width="90" height="20" as="geometry" />
        </mxCell>
        <mxCell id="b6LhymSOxV37hpZ0LlV4-60" value="&lt;font style=&quot;font-size: 10px&quot;&gt;Threat Protection&lt;/font&gt;" style="text;html=1;resizable=0;autosize=1;align=center;verticalAlign=middle;points=[];rounded=0;dashed=1;fillColor=#f5f5f5;fontColor=#333333;" parent="1" vertex="1">
          <mxGeometry x="760" y="420" width="90" height="20" as="geometry" />
        </mxCell>
        <mxCell id="b6LhymSOxV37hpZ0LlV4-61" value="&lt;font style=&quot;font-size: 10px&quot;&gt;Access &amp;amp; Runtime&lt;br&gt;Control&lt;/font&gt;" style="text;html=1;resizable=0;autosize=1;align=center;verticalAlign=middle;points=[];rounded=0;dashed=1;fillColor=#f5f5f5;fontColor=#333333;" parent="1" vertex="1">
          <mxGeometry x="765" y="355" width="100" height="30" as="geometry" />
        </mxCell>
        <mxCell id="ZslXiAwdW-3EuPROBi18-4" value="&lt;b&gt;&lt;font color=&quot;#660000&quot;&gt;Test and Dev ESXi&lt;/font&gt;&lt;/b&gt;" style="text;html=1;strokeColor=none;fillColor=none;align=center;verticalAlign=middle;whiteSpace=wrap;rounded=0;" vertex="1" parent="1">
          <mxGeometry x="1732" y="354" width="125" height="12" as="geometry" />
        </mxCell>
        <mxCell id="ZslXiAwdW-3EuPROBi18-5" value="&lt;b&gt;&lt;font color=&quot;#660000&quot;&gt;Citrix ESXi&lt;/font&gt;&lt;/b&gt;" style="text;html=1;strokeColor=none;fillColor=none;align=center;verticalAlign=middle;whiteSpace=wrap;rounded=0;" vertex="1" parent="1">
          <mxGeometry x="2161" y="350" width="125" height="12" as="geometry" />
        </mxCell>
        <mxCell id="ZslXiAwdW-3EuPROBi18-6" value="&lt;b&gt;&lt;font color=&quot;#660000&quot;&gt;Production ESXi&lt;/font&gt;&lt;/b&gt;" style="text;html=1;strokeColor=none;fillColor=none;align=center;verticalAlign=middle;whiteSpace=wrap;rounded=0;" vertex="1" parent="1">
          <mxGeometry x="1952" y="350" width="125" height="12" as="geometry" />
        </mxCell>
        <mxCell id="ZslXiAwdW-3EuPROBi18-9" value="" style="aspect=fixed;pointerEvents=1;shadow=0;dashed=0;html=1;strokeColor=none;labelPosition=center;verticalLabelPosition=bottom;verticalAlign=top;align=center;fillColor=#00188D;shape=mxgraph.azure.virtual_machine_feature" vertex="1" parent="1">
          <mxGeometry x="2275.11" y="290" width="28.89" height="26" as="geometry" />
        </mxCell>
        <mxCell id="ZslXiAwdW-3EuPROBi18-10" value="" style="aspect=fixed;pointerEvents=1;shadow=0;dashed=0;html=1;strokeColor=none;labelPosition=center;verticalLabelPosition=bottom;verticalAlign=top;align=center;fillColor=#00188D;shape=mxgraph.azure.virtual_machine_feature" vertex="1" parent="1">
          <mxGeometry x="2183" y="290" width="28.89" height="26" as="geometry" />
        </mxCell>
        <mxCell id="ZslXiAwdW-3EuPROBi18-11" value="" style="aspect=fixed;pointerEvents=1;shadow=0;dashed=0;html=1;strokeColor=none;labelPosition=center;verticalLabelPosition=bottom;verticalAlign=top;align=center;fillColor=#00188D;shape=mxgraph.azure.virtual_machine_feature" vertex="1" parent="1">
          <mxGeometry x="2146" y="290" width="28.89" height="26" as="geometry" />
        </mxCell>
        <mxCell id="ZslXiAwdW-3EuPROBi18-12" value="" style="aspect=fixed;pointerEvents=1;shadow=0;dashed=0;html=1;strokeColor=none;labelPosition=center;verticalLabelPosition=bottom;verticalAlign=top;align=center;fillColor=#00188D;shape=mxgraph.azure.virtual_machine_feature" vertex="1" parent="1">
          <mxGeometry x="2066" y="290" width="28.89" height="26" as="geometry" />
        </mxCell>
        <mxCell id="ZslXiAwdW-3EuPROBi18-13" value="" style="aspect=fixed;pointerEvents=1;shadow=0;dashed=0;html=1;strokeColor=none;labelPosition=center;verticalLabelPosition=bottom;verticalAlign=top;align=center;fillColor=#00188D;shape=mxgraph.azure.virtual_machine_feature" vertex="1" parent="1">
          <mxGeometry x="1970" y="292" width="28.89" height="26" as="geometry" />
        </mxCell>
        <mxCell id="ZslXiAwdW-3EuPROBi18-14" value="" style="aspect=fixed;pointerEvents=1;shadow=0;dashed=0;html=1;strokeColor=none;labelPosition=center;verticalLabelPosition=bottom;verticalAlign=top;align=center;fillColor=#00188D;shape=mxgraph.azure.virtual_machine_feature" vertex="1" parent="1">
          <mxGeometry x="1932.11" y="292" width="28.89" height="26" as="geometry" />
        </mxCell>
        <mxCell id="ZslXiAwdW-3EuPROBi18-15" value="" style="aspect=fixed;pointerEvents=1;shadow=0;dashed=0;html=1;strokeColor=none;labelPosition=center;verticalLabelPosition=bottom;verticalAlign=top;align=center;fillColor=#00188D;shape=mxgraph.azure.virtual_machine_feature" vertex="1" parent="1">
          <mxGeometry x="1850" y="290" width="28.89" height="26" as="geometry" />
        </mxCell>
        <mxCell id="ZslXiAwdW-3EuPROBi18-16" value="" style="aspect=fixed;pointerEvents=1;shadow=0;dashed=0;html=1;strokeColor=none;labelPosition=center;verticalLabelPosition=bottom;verticalAlign=top;align=center;fillColor=#00188D;shape=mxgraph.azure.virtual_machine_feature" vertex="1" parent="1">
          <mxGeometry x="1761" y="290" width="28.89" height="26" as="geometry" />
        </mxCell>
        <mxCell id="ZslXiAwdW-3EuPROBi18-17" value="" style="aspect=fixed;pointerEvents=1;shadow=0;dashed=0;html=1;strokeColor=none;labelPosition=center;verticalLabelPosition=bottom;verticalAlign=top;align=center;fillColor=#00188D;shape=mxgraph.azure.virtual_machine_feature" vertex="1" parent="1">
          <mxGeometry x="1721" y="290" width="28.89" height="26" as="geometry" />
        </mxCell>
        <mxCell id="ZslXiAwdW-3EuPROBi18-20" value="50 Virtual Servers" style="text;html=1;strokeColor=none;fillColor=none;align=center;verticalAlign=middle;whiteSpace=wrap;rounded=0;" vertex="1" parent="1">
          <mxGeometry x="1718" y="323" width="139" height="12" as="geometry" />
        </mxCell>
        <mxCell id="ZslXiAwdW-3EuPROBi18-21" value="158 Virtual Servers" style="text;html=1;strokeColor=none;fillColor=none;align=center;verticalAlign=middle;whiteSpace=wrap;rounded=0;" vertex="1" parent="1">
          <mxGeometry x="1942" y="325" width="139" height="12" as="geometry" />
        </mxCell>
        <mxCell id="ZslXiAwdW-3EuPROBi18-22" value="38 Virtual Servers" style="text;html=1;strokeColor=none;fillColor=none;align=center;verticalAlign=middle;whiteSpace=wrap;rounded=0;" vertex="1" parent="1">
          <mxGeometry x="2154" y="325" width="139" height="12" as="geometry" />
        </mxCell>
        <mxCell id="ZslXiAwdW-3EuPROBi18-75" style="edgeStyle=orthogonalEdgeStyle;rounded=0;orthogonalLoop=1;jettySize=auto;html=1;entryX=0.15;entryY=1.111;entryDx=0;entryDy=0;entryPerimeter=0;startArrow=classic;startFill=1;endArrow=classic;endFill=1;" edge="1" parent="1" source="ZslXiAwdW-3EuPROBi18-23" target="ZslXiAwdW-3EuPROBi18-41">
          <mxGeometry relative="1" as="geometry" />
        </mxCell>
        <mxCell id="ZslXiAwdW-3EuPROBi18-23" value="" style="rounded=0;whiteSpace=wrap;html=1;strokeColor=#663300;fillColor=none;" vertex="1" parent="1">
          <mxGeometry x="1711.5" y="274" width="175" height="92" as="geometry" />
        </mxCell>
        <mxCell id="ZslXiAwdW-3EuPROBi18-76" style="edgeStyle=orthogonalEdgeStyle;rounded=0;orthogonalLoop=1;jettySize=auto;html=1;entryX=0.5;entryY=1;entryDx=0;entryDy=0;startArrow=classic;startFill=1;endArrow=classic;endFill=1;" edge="1" parent="1" source="ZslXiAwdW-3EuPROBi18-24" target="ZslXiAwdW-3EuPROBi18-41">
          <mxGeometry relative="1" as="geometry" />
        </mxCell>
        <mxCell id="ZslXiAwdW-3EuPROBi18-24" value="" style="rounded=0;whiteSpace=wrap;html=1;strokeColor=#663300;fillColor=none;" vertex="1" parent="1">
          <mxGeometry x="1924" y="274" width="175" height="92" as="geometry" />
        </mxCell>
        <mxCell id="ZslXiAwdW-3EuPROBi18-77" style="edgeStyle=orthogonalEdgeStyle;rounded=0;orthogonalLoop=1;jettySize=auto;html=1;entryX=0.852;entryY=0.952;entryDx=0;entryDy=0;entryPerimeter=0;startArrow=classic;startFill=1;endArrow=classic;endFill=1;" edge="1" parent="1" source="ZslXiAwdW-3EuPROBi18-25" target="ZslXiAwdW-3EuPROBi18-41">
          <mxGeometry relative="1" as="geometry" />
        </mxCell>
        <mxCell id="ZslXiAwdW-3EuPROBi18-25" value="" style="rounded=0;whiteSpace=wrap;html=1;strokeColor=#663300;fillColor=none;" vertex="1" parent="1">
          <mxGeometry x="2138" y="274" width="175" height="92" as="geometry" />
        </mxCell>
        <mxCell id="ZslXiAwdW-3EuPROBi18-78" style="edgeStyle=orthogonalEdgeStyle;rounded=0;orthogonalLoop=1;jettySize=auto;html=1;entryX=0.5;entryY=1;entryDx=0;entryDy=0;startArrow=classic;startFill=1;endArrow=classic;endFill=1;" edge="1" parent="1" source="ZslXiAwdW-3EuPROBi18-26" target="ZslXiAwdW-3EuPROBi18-23">
          <mxGeometry relative="1" as="geometry" />
        </mxCell>
        <mxCell id="ZslXiAwdW-3EuPROBi18-26" value="" style="rounded=1;whiteSpace=wrap;html=1;strokeColor=#663300;fillColor=none;" vertex="1" parent="1">
          <mxGeometry x="1712" y="397" width="174" height="28" as="geometry" />
        </mxCell>
        <mxCell id="ZslXiAwdW-3EuPROBi18-79" style="edgeStyle=orthogonalEdgeStyle;rounded=0;orthogonalLoop=1;jettySize=auto;html=1;entryX=0.5;entryY=1;entryDx=0;entryDy=0;startArrow=classic;startFill=1;endArrow=classic;endFill=1;" edge="1" parent="1" source="ZslXiAwdW-3EuPROBi18-27" target="ZslXiAwdW-3EuPROBi18-24">
          <mxGeometry relative="1" as="geometry" />
        </mxCell>
        <mxCell id="ZslXiAwdW-3EuPROBi18-27" value="" style="rounded=1;whiteSpace=wrap;html=1;strokeColor=#663300;fillColor=none;" vertex="1" parent="1">
          <mxGeometry x="1924.5" y="397" width="174" height="28" as="geometry" />
        </mxCell>
        <mxCell id="ZslXiAwdW-3EuPROBi18-80" style="edgeStyle=orthogonalEdgeStyle;rounded=0;orthogonalLoop=1;jettySize=auto;html=1;entryX=0.5;entryY=1;entryDx=0;entryDy=0;startArrow=classic;startFill=1;endArrow=classic;endFill=1;" edge="1" parent="1" source="ZslXiAwdW-3EuPROBi18-28" target="ZslXiAwdW-3EuPROBi18-25">
          <mxGeometry relative="1" as="geometry" />
        </mxCell>
        <mxCell id="ZslXiAwdW-3EuPROBi18-28" value="" style="rounded=1;whiteSpace=wrap;html=1;strokeColor=#663300;fillColor=none;" vertex="1" parent="1">
          <mxGeometry x="2139" y="397" width="174" height="28" as="geometry" />
        </mxCell>
        <mxCell id="ZslXiAwdW-3EuPROBi18-82" style="edgeStyle=orthogonalEdgeStyle;rounded=0;orthogonalLoop=1;jettySize=auto;html=1;entryX=0.5;entryY=1;entryDx=0;entryDy=0;startArrow=classic;startFill=1;endArrow=classic;endFill=1;" edge="1" parent="1" source="ZslXiAwdW-3EuPROBi18-29" target="ZslXiAwdW-3EuPROBi18-26">
          <mxGeometry relative="1" as="geometry" />
        </mxCell>
        <mxCell id="ZslXiAwdW-3EuPROBi18-29" value="" style="shape=cylinder3;whiteSpace=wrap;html=1;boundedLbl=1;backgroundOutline=1;size=15;strokeColor=#663300;fillColor=none;" vertex="1" parent="1">
          <mxGeometry x="1753" y="466" width="92" height="58" as="geometry" />
        </mxCell>
        <mxCell id="ZslXiAwdW-3EuPROBi18-83" style="edgeStyle=orthogonalEdgeStyle;rounded=0;orthogonalLoop=1;jettySize=auto;html=1;entryX=0.5;entryY=1;entryDx=0;entryDy=0;startArrow=classic;startFill=1;endArrow=classic;endFill=1;" edge="1" parent="1" source="ZslXiAwdW-3EuPROBi18-30" target="ZslXiAwdW-3EuPROBi18-27">
          <mxGeometry relative="1" as="geometry" />
        </mxCell>
        <mxCell id="ZslXiAwdW-3EuPROBi18-30" value="" style="shape=cylinder3;whiteSpace=wrap;html=1;boundedLbl=1;backgroundOutline=1;size=15;strokeColor=#663300;fillColor=none;" vertex="1" parent="1">
          <mxGeometry x="1906.89" y="475" width="74.11" height="58" as="geometry" />
        </mxCell>
        <mxCell id="ZslXiAwdW-3EuPROBi18-86" style="edgeStyle=orthogonalEdgeStyle;rounded=0;orthogonalLoop=1;jettySize=auto;html=1;entryX=0.554;entryY=1.107;entryDx=0;entryDy=0;entryPerimeter=0;startArrow=classic;startFill=1;endArrow=classic;endFill=1;" edge="1" parent="1" source="ZslXiAwdW-3EuPROBi18-31" target="ZslXiAwdW-3EuPROBi18-28">
          <mxGeometry relative="1" as="geometry" />
        </mxCell>
        <mxCell id="ZslXiAwdW-3EuPROBi18-31" value="" style="shape=cylinder3;whiteSpace=wrap;html=1;boundedLbl=1;backgroundOutline=1;size=15;strokeColor=#663300;fillColor=none;" vertex="1" parent="1">
          <mxGeometry x="2189" y="466" width="92" height="58" as="geometry" />
        </mxCell>
        <mxCell id="ZslXiAwdW-3EuPROBi18-32" value="Test &amp;amp; Dev SAN Switch" style="text;html=1;strokeColor=none;fillColor=none;align=center;verticalAlign=middle;whiteSpace=wrap;rounded=0;" vertex="1" parent="1">
          <mxGeometry x="1700.89" y="405" width="178" height="12" as="geometry" />
        </mxCell>
        <mxCell id="ZslXiAwdW-3EuPROBi18-33" value="Production SAN Switch" style="text;html=1;strokeColor=none;fillColor=none;align=center;verticalAlign=middle;whiteSpace=wrap;rounded=0;" vertex="1" parent="1">
          <mxGeometry x="1920.5" y="405" width="178" height="12" as="geometry" />
        </mxCell>
        <mxCell id="ZslXiAwdW-3EuPROBi18-34" value="Citrix SAN Switch" style="text;html=1;strokeColor=none;fillColor=none;align=center;verticalAlign=middle;whiteSpace=wrap;rounded=0;" vertex="1" parent="1">
          <mxGeometry x="2139" y="405" width="178" height="12" as="geometry" />
        </mxCell>
        <mxCell id="ZslXiAwdW-3EuPROBi18-35" value="SAN" style="text;html=1;strokeColor=none;fillColor=none;align=center;verticalAlign=middle;whiteSpace=wrap;rounded=0;" vertex="1" parent="1">
          <mxGeometry x="1779" y="497" width="40" height="20" as="geometry" />
        </mxCell>
        <mxCell id="ZslXiAwdW-3EuPROBi18-36" value="SAN" style="text;html=1;strokeColor=none;fillColor=none;align=center;verticalAlign=middle;whiteSpace=wrap;rounded=0;fontStyle=0" vertex="1" parent="1">
          <mxGeometry x="2223" y="497" width="40" height="20" as="geometry" />
        </mxCell>
        <mxCell id="ZslXiAwdW-3EuPROBi18-37" value="SAN" style="text;html=1;strokeColor=none;fillColor=none;align=center;verticalAlign=middle;whiteSpace=wrap;rounded=0;fontStyle=0" vertex="1" parent="1">
          <mxGeometry x="1921" y="507" width="40" height="20" as="geometry" />
        </mxCell>
        <mxCell id="ZslXiAwdW-3EuPROBi18-41" value="" style="rounded=1;whiteSpace=wrap;html=1;strokeColor=#663300;fillColor=none;" vertex="1" parent="1">
          <mxGeometry x="1708.5" y="212" width="606" height="21" as="geometry" />
        </mxCell>
        <mxCell id="ZslXiAwdW-3EuPROBi18-42" value="CORE SWITCHES" style="text;html=1;strokeColor=none;fillColor=none;align=center;verticalAlign=middle;whiteSpace=wrap;rounded=0;" vertex="1" parent="1">
          <mxGeometry x="1896" y="221.5" width="181" height="5" as="geometry" />
        </mxCell>
        <mxCell id="ZslXiAwdW-3EuPROBi18-84" style="edgeStyle=orthogonalEdgeStyle;rounded=0;orthogonalLoop=1;jettySize=auto;html=1;startArrow=classic;startFill=1;endArrow=classic;endFill=1;" edge="1" parent="1" source="ZslXiAwdW-3EuPROBi18-43">
          <mxGeometry relative="1" as="geometry">
            <mxPoint x="2010.6666259765625" y="427.3333740234375" as="targetPoint" />
          </mxGeometry>
        </mxCell>
        <mxCell id="ZslXiAwdW-3EuPROBi18-43" value="" style="shape=cylinder3;whiteSpace=wrap;html=1;boundedLbl=1;backgroundOutline=1;size=15;strokeColor=#663300;fillColor=none;" vertex="1" parent="1">
          <mxGeometry x="1988" y="475" width="74.11" height="58" as="geometry" />
        </mxCell>
        <mxCell id="ZslXiAwdW-3EuPROBi18-85" style="edgeStyle=orthogonalEdgeStyle;rounded=0;orthogonalLoop=1;jettySize=auto;html=1;startArrow=classic;startFill=1;endArrow=classic;endFill=1;" edge="1" parent="1" source="ZslXiAwdW-3EuPROBi18-44">
          <mxGeometry relative="1" as="geometry">
            <mxPoint x="2011.9999389648438" y="427.3333740234375" as="targetPoint" />
            <Array as="points">
              <mxPoint x="2103" y="452" />
              <mxPoint x="2012" y="452" />
            </Array>
          </mxGeometry>
        </mxCell>
        <mxCell id="ZslXiAwdW-3EuPROBi18-44" value="" style="shape=cylinder3;whiteSpace=wrap;html=1;boundedLbl=1;backgroundOutline=1;size=15;strokeColor=#663300;fillColor=none;" vertex="1" parent="1">
          <mxGeometry x="2066" y="475" width="74.11" height="58" as="geometry" />
        </mxCell>
        <mxCell id="ZslXiAwdW-3EuPROBi18-45" value="Tape Lib." style="text;html=1;strokeColor=none;fillColor=none;align=center;verticalAlign=middle;whiteSpace=wrap;rounded=0;" vertex="1" parent="1">
          <mxGeometry x="1998.89" y="507" width="51.11" height="21" as="geometry" />
        </mxCell>
        <mxCell id="ZslXiAwdW-3EuPROBi18-46" value="CommVault" style="text;html=1;strokeColor=none;fillColor=none;align=center;verticalAlign=middle;whiteSpace=wrap;rounded=0;" vertex="1" parent="1">
          <mxGeometry x="2077" y="507" width="51.11" height="21" as="geometry" />
        </mxCell>
        <mxCell id="ZslXiAwdW-3EuPROBi18-68" style="edgeStyle=orthogonalEdgeStyle;rounded=0;orthogonalLoop=1;jettySize=auto;html=1;startArrow=classic;startFill=1;endArrow=classic;endFill=1;" edge="1" parent="1" source="ZslXiAwdW-3EuPROBi18-47">
          <mxGeometry relative="1" as="geometry">
            <mxPoint x="1820.6666259765625" y="144.5" as="targetPoint" />
          </mxGeometry>
        </mxCell>
        <mxCell id="ZslXiAwdW-3EuPROBi18-47" value="" style="aspect=fixed;pointerEvents=1;shadow=0;dashed=0;html=1;strokeColor=none;labelPosition=center;verticalLabelPosition=bottom;verticalAlign=top;align=center;fillColor=#00188D;shape=mxgraph.mscae.enterprise.router" vertex="1" parent="1">
          <mxGeometry x="1729" y="125" width="50" height="39" as="geometry" />
        </mxCell>
        <mxCell id="ZslXiAwdW-3EuPROBi18-48" value="" style="aspect=fixed;perimeter=ellipsePerimeter;html=1;align=center;shadow=0;dashed=0;spacingTop=3;image;image=img/lib/active_directory/firewall.svg;strokeColor=#663300;fillColor=none;" vertex="1" parent="1">
          <mxGeometry x="1966" y="111" width="30.5" height="50" as="geometry" />
        </mxCell>
        <mxCell id="ZslXiAwdW-3EuPROBi18-74" style="edgeStyle=orthogonalEdgeStyle;rounded=0;orthogonalLoop=1;jettySize=auto;html=1;entryX=0.862;entryY=0;entryDx=0;entryDy=0;entryPerimeter=0;startArrow=classic;startFill=1;endArrow=classic;endFill=1;" edge="1" parent="1" source="ZslXiAwdW-3EuPROBi18-49" target="ZslXiAwdW-3EuPROBi18-41">
          <mxGeometry relative="1" as="geometry" />
        </mxCell>
        <mxCell id="ZslXiAwdW-3EuPROBi18-49" value="" style="aspect=fixed;pointerEvents=1;shadow=0;dashed=0;html=1;strokeColor=none;labelPosition=center;verticalLabelPosition=bottom;verticalAlign=top;align=center;fillColor=#00188D;shape=mxgraph.mscae.enterprise.router" vertex="1" parent="1">
          <mxGeometry x="2206" y="128" width="50" height="39" as="geometry" />
        </mxCell>
        <mxCell id="ZslXiAwdW-3EuPROBi18-50" value="" style="aspect=fixed;perimeter=ellipsePerimeter;html=1;align=center;shadow=0;dashed=0;spacingTop=3;image;image=img/lib/active_directory/firewall.svg;strokeColor=#663300;fillColor=none;" vertex="1" parent="1">
          <mxGeometry x="1996.5" y="110" width="30.5" height="50" as="geometry" />
        </mxCell>
        <mxCell id="ZslXiAwdW-3EuPROBi18-51" value="Gamma SIP Router" style="text;html=1;strokeColor=none;fillColor=none;align=center;verticalAlign=middle;whiteSpace=wrap;rounded=0;" vertex="1" parent="1">
          <mxGeometry x="1697.5" y="167" width="113" height="20" as="geometry" />
        </mxCell>
        <mxCell id="ZslXiAwdW-3EuPROBi18-52" value="Firewalls (Fortigate, Meraki)" style="text;html=1;strokeColor=none;fillColor=none;align=center;verticalAlign=middle;whiteSpace=wrap;rounded=0;" vertex="1" parent="1">
          <mxGeometry x="1968.55" y="170" width="151.45" height="20" as="geometry" />
        </mxCell>
        <mxCell id="ZslXiAwdW-3EuPROBi18-53" value="Pulsant MPLS Router" style="text;html=1;strokeColor=none;fillColor=none;align=center;verticalAlign=middle;whiteSpace=wrap;rounded=0;" vertex="1" parent="1">
          <mxGeometry x="2150" y="184" width="120.89" height="20" as="geometry" />
        </mxCell>
        <mxCell id="ZslXiAwdW-3EuPROBi18-67" style="edgeStyle=orthogonalEdgeStyle;rounded=0;orthogonalLoop=1;jettySize=auto;html=1;startArrow=classic;startFill=1;endArrow=classic;endFill=1;" edge="1" parent="1" source="ZslXiAwdW-3EuPROBi18-54">
          <mxGeometry relative="1" as="geometry">
            <mxPoint x="1759" y="133" as="targetPoint" />
          </mxGeometry>
        </mxCell>
        <mxCell id="ZslXiAwdW-3EuPROBi18-54" value="" style="ellipse;shape=cloud;whiteSpace=wrap;html=1;strokeColor=#663300;fillColor=none;" vertex="1" parent="1">
          <mxGeometry x="1699" y="45" width="120" height="49" as="geometry" />
        </mxCell>
        <mxCell id="ZslXiAwdW-3EuPROBi18-71" style="edgeStyle=orthogonalEdgeStyle;rounded=0;orthogonalLoop=1;jettySize=auto;html=1;entryX=0.368;entryY=0.107;entryDx=0;entryDy=0;entryPerimeter=0;startArrow=classic;startFill=1;endArrow=classic;endFill=1;" edge="1" parent="1" source="ZslXiAwdW-3EuPROBi18-55" target="ZslXiAwdW-3EuPROBi18-65">
          <mxGeometry relative="1" as="geometry" />
        </mxCell>
        <mxCell id="ZslXiAwdW-3EuPROBi18-55" value="" style="ellipse;shape=cloud;whiteSpace=wrap;html=1;strokeColor=#663300;fillColor=none;" vertex="1" parent="1">
          <mxGeometry x="1926.5" y="37" width="120" height="39" as="geometry" />
        </mxCell>
        <mxCell id="ZslXiAwdW-3EuPROBi18-72" style="edgeStyle=orthogonalEdgeStyle;rounded=0;orthogonalLoop=1;jettySize=auto;html=1;entryX=0.307;entryY=0.239;entryDx=0;entryDy=0;entryPerimeter=0;startArrow=classic;startFill=1;endArrow=classic;endFill=1;" edge="1" parent="1" source="ZslXiAwdW-3EuPROBi18-56" target="ZslXiAwdW-3EuPROBi18-49">
          <mxGeometry relative="1" as="geometry" />
        </mxCell>
        <mxCell id="ZslXiAwdW-3EuPROBi18-56" value="" style="ellipse;shape=cloud;whiteSpace=wrap;html=1;strokeColor=#663300;fillColor=none;" vertex="1" parent="1">
          <mxGeometry x="2161" y="48" width="120" height="49" as="geometry" />
        </mxCell>
        <mxCell id="ZslXiAwdW-3EuPROBi18-57" value="Internet" style="text;html=1;strokeColor=none;fillColor=none;align=center;verticalAlign=middle;whiteSpace=wrap;rounded=0;" vertex="1" parent="1">
          <mxGeometry x="1970" y="54.5" width="40" height="20" as="geometry" />
        </mxCell>
        <mxCell id="ZslXiAwdW-3EuPROBi18-58" value="Gamma n/w&amp;nbsp;" style="text;html=1;strokeColor=none;fillColor=none;align=center;verticalAlign=middle;whiteSpace=wrap;rounded=0;" vertex="1" parent="1">
          <mxGeometry x="1729" y="62.5" width="76" height="20" as="geometry" />
        </mxCell>
        <mxCell id="ZslXiAwdW-3EuPROBi18-59" value="MPLS Cloud" style="text;html=1;strokeColor=none;fillColor=none;align=center;verticalAlign=middle;whiteSpace=wrap;rounded=0;" vertex="1" parent="1">
          <mxGeometry x="2187" y="62.5" width="76" height="20" as="geometry" />
        </mxCell>
        <mxCell id="ZslXiAwdW-3EuPROBi18-70" style="edgeStyle=orthogonalEdgeStyle;rounded=0;orthogonalLoop=1;jettySize=auto;html=1;entryX=0.233;entryY=-0.032;entryDx=0;entryDy=0;entryPerimeter=0;startArrow=classic;startFill=1;endArrow=classic;endFill=1;" edge="1" parent="1" source="ZslXiAwdW-3EuPROBi18-61" target="ZslXiAwdW-3EuPROBi18-41">
          <mxGeometry relative="1" as="geometry" />
        </mxCell>
        <mxCell id="ZslXiAwdW-3EuPROBi18-61" value="" style="rounded=1;whiteSpace=wrap;html=1;strokeColor=#663300;fillColor=#A9C4EB;" vertex="1" parent="1">
          <mxGeometry x="1820.89" y="117" width="58" height="49" as="geometry" />
        </mxCell>
        <mxCell id="ZslXiAwdW-3EuPROBi18-62" value="Sonus SBC" style="text;html=1;strokeColor=none;fillColor=none;align=center;verticalAlign=middle;whiteSpace=wrap;rounded=0;" vertex="1" parent="1">
          <mxGeometry x="1852.4999999999998" y="164" width="68" height="20" as="geometry" />
        </mxCell>
        <mxCell id="ZslXiAwdW-3EuPROBi18-73" style="edgeStyle=orthogonalEdgeStyle;rounded=0;orthogonalLoop=1;jettySize=auto;html=1;entryX=0.552;entryY=-0.833;entryDx=0;entryDy=0;entryPerimeter=0;startArrow=classic;startFill=1;endArrow=classic;endFill=1;" edge="1" parent="1" source="ZslXiAwdW-3EuPROBi18-65" target="ZslXiAwdW-3EuPROBi18-42">
          <mxGeometry relative="1" as="geometry" />
        </mxCell>
        <mxCell id="ZslXiAwdW-3EuPROBi18-65" value="" style="rounded=0;whiteSpace=wrap;html=1;strokeColor=#663300;fillColor=none;" vertex="1" parent="1">
          <mxGeometry x="1960" y="107" width="72" height="53" as="geometry" />
        </mxCell>
        <mxCell id="ZslXiAwdW-3EuPROBi18-87" value="&lt;b&gt;&lt;font color=&quot;#660000&quot; style=&quot;font-size: 18px&quot;&gt;ONE HOUSING GROUP CO-LOCATED DATA CENTER&lt;/font&gt;&lt;/b&gt;" style="text;html=1;strokeColor=none;fillColor=none;align=center;verticalAlign=middle;whiteSpace=wrap;rounded=0;" vertex="1" parent="1">
          <mxGeometry x="1764.13" y="11" width="463.75" height="20" as="geometry" />
        </mxCell>
        <mxCell id="ZslXiAwdW-3EuPROBi18-88" value="" style="rounded=1;whiteSpace=wrap;html=1;strokeColor=#663300;fillColor=none;dashed=1;" vertex="1" parent="1">
          <mxGeometry x="1755.88" y="5" width="474" height="32" as="geometry" />
        </mxCell>
      </root>
    </mxGraphModel>
  </diagram>
</mxfile>
